<svg width="164" height="178" viewBox="0 0 164 178" fill="none" xmlns="http://www.w3.org/2000/svg">
<g id="Group 1175">
<rect id="Rectangle 834" width="2.31088" height="2.31088" transform="matrix(0.707082 0.707131 -0.707082 0.707131 52.9543 83.9422)" fill="#00FFF0"/>
<g id="Group 1174">
<rect id="Rectangle 831" x="77.5228" y="130.022" width="4.67319" height="4.67319" transform="rotate(45 77.5228 130.022)" fill="#00FFF0"/>
<rect id="Rectangle 832" width="2.1717" height="2.1717" transform="matrix(-0.707107 -0.707107 -0.707107 0.707107 163.041 133.327)" fill="#00FFF0"/>
<rect id="Rectangle 833" x="127.147" y="174.5" width="2.31088" height="2.31088" transform="rotate(45 127.147 174.5)" fill="#00FFF0"/>
<rect id="Rectangle 835" width="2.31088" height="2.31088" transform="matrix(0.707131 0.707082 -0.707131 0.707082 1.995 78.4602)" fill="#00FFF0"/>
<rect id="Rectangle 836" width="2.31088" height="2.31088" transform="matrix(0.707131 0.707082 -0.707131 0.707082 14.3398 0.575928)" fill="#00FFF0" fill-opacity="0.5"/>
<rect id="Rectangle 837" x="49.6829" y="46.0406" width="1.61507" height="1.61507" transform="rotate(45 49.6829 46.0406)" fill="#00FFF0" fill-opacity="0.5"/>
<rect id="Rectangle 838" x="29.9816" y="37.9645" width="3.0132" height="3.0132" transform="rotate(45 29.9816 37.9645)" fill="#00FFF0" fill-opacity="0.5"/>
</g>
</g>
</svg>
